<svg xmlns="http://www.w3.org/2000/svg" viewBox="0 0 1776 825" width="1776" height="825" font-family="ui-monospace, SFMono-Regular, Menlo, Consolas, monospace">
<defs>
<marker id="arrow" viewBox="0 0 10 10" refX="9" refY="5" markerWidth="6" markerHeight="6" orient="auto-start-reverse"><path d="M0,1 L9,5 L0,9 z" fill="#5a6b7d"/></marker>
<marker id="arrow-soft" viewBox="0 0 10 10" refX="9" refY="5" markerWidth="6" markerHeight="6" orient="auto-start-reverse"><path d="M0,1 L9,5 L0,9 z" fill="#a8b4c0"/></marker>
</defs>
<rect width="1776" height="825" fill="#f7f9fb"/>
<text x="40" y="40" font-size="20" font-weight="600" fill="#132433">medical_ai — entity relationship diagram</text>
<text x="40" y="60" font-size="11" fill="#7b8ea3">16 tables · 25 foreign keys · generated from the live schema by scripts/erd_svg.py</text>
<rect x="40" y="76" width="9" height="9" rx="2" fill="#6b5bd2"/>
<text x="55" y="85" font-size="10.5" fill="#4c6076">people</text>
<rect x="104.4" y="76" width="9" height="9" rx="2" fill="#2f6fd0"/>
<text x="119.4" y="85" font-size="10.5" fill="#4c6076">catalog</text>
<rect x="175.20000000000002" y="76" width="9" height="9" rx="2" fill="#a8681c"/>
<text x="190.20000000000002" y="85" font-size="10.5" fill="#4c6076">access</text>
<rect x="239.60000000000002" y="76" width="9" height="9" rx="2" fill="#177a70"/>
<text x="254.60000000000002" y="85" font-size="10.5" fill="#4c6076">content</text>
<rect x="310.40000000000003" y="76" width="9" height="9" rx="2" fill="#a83d63"/>
<text x="325.40000000000003" y="85" font-size="10.5" fill="#4c6076">activity</text>
<rect x="387.6" y="76" width="9" height="9" rx="2" fill="#3d7a45"/>
<text x="402.6" y="85" font-size="10.5" fill="#4c6076">reporting</text>
<text x="485.20000000000005" y="85" font-size="10.5" fill="#a8b4c0">faded edge = crosses a layer  ·  trailing · = NOT NULL</text>
<path d="M276,256 C372,256 236,382 326,382" fill="none" stroke="#5a6b7d" stroke-width="1.3" marker-end="url(#arrow)"/>
<path d="M276,382 C372,382 236,382 326,382" fill="none" stroke="#5a6b7d" stroke-width="1.3" marker-end="url(#arrow)"/>
<path d="M568,382 C664,382 528,434 618,434" fill="none" stroke="#5a6b7d" stroke-width="1.3" marker-end="url(#arrow)"/>
<text x="596" y="402" font-size="8.5" fill="#8b98a6" text-anchor="middle">CASCADE</text>
<path d="M276,256 C398,256 502,434 618,434" fill="none" stroke="#a8b4c0" stroke-width="1.3" marker-end="url(#arrow-soft)"/>
<path d="M276,256 C424,256 768,450 910,450" fill="none" stroke="#a8b4c0" stroke-width="1.3" marker-end="url(#arrow-soft)"/>
<path d="M568,382 C690,382 794,450 910,450" fill="none" stroke="#a8b4c0" stroke-width="1.3" marker-end="url(#arrow-soft)"/>
<path d="M860,293 C956,293 820,450 910,450" fill="none" stroke="#5a6b7d" stroke-width="1.3" marker-end="url(#arrow)"/>
<text x="888" y="365" font-size="8.5" fill="#8b98a6" text-anchor="middle">SET NULL</text>
<path d="M568,382 C664,382 528,293 618,293" fill="none" stroke="#5a6b7d" stroke-width="1.3" marker-end="url(#arrow)"/>
<text x="596" y="332" font-size="8.5" fill="#8b98a6" text-anchor="middle">CASCADE</text>
<path d="M276,256 C466,256 1310,532 1494,532" fill="none" stroke="#a8b4c0" stroke-width="1.3" marker-end="url(#arrow-soft)"/>
<path d="M276,256 C466,256 1310,532 1494,532" fill="none" stroke="#a8b4c0" stroke-width="1.3" marker-end="url(#arrow-soft)"/>
<path d="M1444,710 C1540,710 1404,532 1494,532" fill="none" stroke="#5a6b7d" stroke-width="1.3" marker-end="url(#arrow)"/>
<text x="1472" y="615" font-size="8.5" fill="#8b98a6" text-anchor="middle">CASCADE</text>
<path d="M1444,532 C1540,532 1404,345 1494,345" fill="none" stroke="#5a6b7d" stroke-width="1.3" marker-end="url(#arrow)"/>
<text x="1472" y="432" font-size="8.5" fill="#8b98a6" text-anchor="middle">CASCADE</text>
<path d="M276,256 C466,256 1310,345 1494,345" fill="none" stroke="#a8b4c0" stroke-width="1.3" marker-end="url(#arrow-soft)"/>
<path d="M1152,450 C1248,450 1112,532 1202,532" fill="none" stroke="#5a6b7d" stroke-width="1.3" marker-end="url(#arrow)"/>
<text x="1180" y="484" font-size="8.5" fill="#8b98a6" text-anchor="middle">CASCADE</text>
<path d="M276,486 C450,486 1034,532 1202,532" fill="none" stroke="#a8b4c0" stroke-width="1.3" marker-end="url(#arrow-soft)"/>
<path d="M276,256 C398,256 502,591 618,591" fill="none" stroke="#a8b4c0" stroke-width="1.3" marker-end="url(#arrow-soft)"/>
<path d="M568,382 C664,382 528,591 618,591" fill="none" stroke="#5a6b7d" stroke-width="1.3" marker-end="url(#arrow)"/>
<text x="596" y="481" font-size="8.5" fill="#8b98a6" text-anchor="middle">CASCADE</text>
<path d="M1152,450 C1248,450 1112,710 1202,710" fill="none" stroke="#5a6b7d" stroke-width="1.3" marker-end="url(#arrow)"/>
<text x="1180" y="574" font-size="8.5" fill="#8b98a6" text-anchor="middle">CASCADE</text>
<path d="M276,256 C450,256 1034,710 1202,710" fill="none" stroke="#a8b4c0" stroke-width="1.3" marker-end="url(#arrow-soft)"/>
<path d="M568,382 C716,382 1060,710 1202,710" fill="none" stroke="#a8b4c0" stroke-width="1.3" marker-end="url(#arrow-soft)"/>
<path d="M276,256 C372,256 236,532 326,532" fill="none" stroke="#5a6b7d" stroke-width="1.3" marker-end="url(#arrow)"/>
<path d="M276,256 C372,256 236,532 326,532" fill="none" stroke="#5a6b7d" stroke-width="1.3" marker-end="url(#arrow)"/>
<path d="M1152,450 C1248,450 1112,181 1202,181" fill="none" stroke="#5a6b7d" stroke-width="1.3" marker-end="url(#arrow)"/>
<text x="1180" y="309" font-size="8.5" fill="#8b98a6" text-anchor="middle">CASCADE</text>
<path d="M276,256 C450,256 1034,352 1202,352" fill="none" stroke="#a8b4c0" stroke-width="1.3" marker-end="url(#arrow-soft)"/>
<path d="M1152,450 C1248,450 1112,352 1202,352" fill="none" stroke="#5a6b7d" stroke-width="1.3" marker-end="url(#arrow)"/>
<text x="1180" y="395" font-size="8.5" fill="#8b98a6" text-anchor="middle">CASCADE</text>
<rect x="40" y="196" width="236" height="119" rx="7" fill="#ffffff" stroke="#6b5bd2" stroke-width="1.2"/>
<path d="M40,222 h236" stroke="#6b5bd2" stroke-width="1" opacity="0.45"/>
<rect x="40" y="196" width="236" height="26" rx="7" fill="#6b5bd2" opacity="0.10"/>
<text x="51" y="214" font-size="12.5" font-weight="600" fill="#6b5bd2">users</text>
<text x="51" y="240" font-size="10" fill="#3c4c5c">id</text>
<text x="158" y="240" font-size="7.5" font-weight="600" fill="#6b5bd2">PK</text>
<text x="265" y="240" font-size="8.5" fill="#9aa8b6" text-anchor="end">int ·</text>
<text x="51" y="254" font-size="10" fill="#3c4c5c">role</text>
<text x="265" y="254" font-size="8.5" fill="#9aa8b6" text-anchor="end">varchar ·</text>
<text x="51" y="270" font-size="10" fill="#3c4c5c">name</text>
<text x="265" y="270" font-size="8.5" fill="#9aa8b6" text-anchor="end">varchar ·</text>
<text x="51" y="284" font-size="10" fill="#3c4c5c">email</text>
<text x="158" y="284" font-size="7.5" font-weight="600" fill="#6b5bd2">UK</text>
<text x="265" y="284" font-size="8.5" fill="#9aa8b6" text-anchor="end">varchar ·</text>
<text x="51" y="300" font-size="10" fill="#3c4c5c">created_at</text>
<text x="265" y="300" font-size="8.5" fill="#9aa8b6" text-anchor="end">timestamptz ·</text>
<rect x="40" y="346" width="236" height="74" rx="7" fill="#ffffff" stroke="#2f6fd0" stroke-width="2.2"/>
<path d="M40,372 h236" stroke="#2f6fd0" stroke-width="1" opacity="0.45"/>
<rect x="40" y="346" width="236" height="26" rx="7" fill="#2f6fd0" opacity="0.10"/>
<text x="51" y="363" font-size="12.5" font-weight="600" fill="#2f6fd0">subjects</text>
<text x="265" y="363" font-size="8.5" font-weight="600" fill="#2f6fd0" text-anchor="end" opacity="0.75">NEW</text>
<text x="51" y="388" font-size="10" fill="#3c4c5c">id</text>
<text x="158" y="388" font-size="7.5" font-weight="600" fill="#2f6fd0">PK</text>
<text x="265" y="388" font-size="8.5" fill="#9aa8b6" text-anchor="end">int ·</text>
<text x="51" y="404" font-size="10" fill="#3c4c5c">name</text>
<text x="158" y="404" font-size="7.5" font-weight="600" fill="#2f6fd0">UK</text>
<text x="265" y="404" font-size="8.5" fill="#9aa8b6" text-anchor="end">varchar ·</text>
<rect x="40" y="450" width="236" height="74" rx="7" fill="#ffffff" stroke="#a83d63" stroke-width="1.2"/>
<path d="M40,476 h236" stroke="#a83d63" stroke-width="1" opacity="0.45"/>
<rect x="40" y="450" width="236" height="26" rx="7" fill="#a83d63" opacity="0.10"/>
<text x="51" y="467" font-size="12.5" font-weight="600" fill="#a83d63">topics</text>
<text x="51" y="492" font-size="10" fill="#3c4c5c">id</text>
<text x="158" y="492" font-size="7.5" font-weight="600" fill="#a83d63">PK</text>
<text x="265" y="492" font-size="8.5" fill="#9aa8b6" text-anchor="end">int ·</text>
<text x="51" y="508" font-size="10" fill="#3c4c5c">name</text>
<text x="265" y="508" font-size="8.5" fill="#9aa8b6" text-anchor="end">varchar ·</text>
<rect x="40" y="554" width="236" height="149" rx="7" fill="#ffffff" stroke="#177a70" stroke-width="1.2"/>
<path d="M40,580 h236" stroke="#177a70" stroke-width="1" opacity="0.45"/>
<rect x="40" y="554" width="236" height="26" rx="7" fill="#177a70" opacity="0.10"/>
<text x="51" y="571" font-size="12.5" font-weight="600" fill="#177a70">query_embeddings</text>
<text x="51" y="596" font-size="10" fill="#3c4c5c">id</text>
<text x="158" y="596" font-size="7.5" font-weight="600" fill="#177a70">PK</text>
<text x="265" y="596" font-size="8.5" fill="#9aa8b6" text-anchor="end">int ·</text>
<text x="51" y="612" font-size="10" fill="#3c4c5c">query_hash</text>
<text x="158" y="612" font-size="7.5" font-weight="600" fill="#177a70">UK</text>
<text x="265" y="612" font-size="8.5" fill="#9aa8b6" text-anchor="end">char ·</text>
<text x="51" y="626" font-size="10" fill="#3c4c5c">model</text>
<text x="158" y="626" font-size="7.5" font-weight="600" fill="#177a70">UK</text>
<text x="265" y="626" font-size="8.5" fill="#9aa8b6" text-anchor="end">varchar ·</text>
<text x="51" y="642" font-size="10" fill="#3c4c5c">dim</text>
<text x="158" y="642" font-size="7.5" font-weight="600" fill="#177a70">UK</text>
<text x="265" y="642" font-size="8.5" fill="#9aa8b6" text-anchor="end">int ·</text>
<text x="51" y="656" font-size="10" fill="#3c4c5c">query</text>
<text x="265" y="656" font-size="8.5" fill="#9aa8b6" text-anchor="end">text ·</text>
<text x="51" y="672" font-size="10" fill="#3c4c5c">embedding</text>
<text x="265" y="672" font-size="8.5" fill="#9aa8b6" text-anchor="end">vector ·</text>
<text x="51" y="686" font-size="10" fill="#3c4c5c">created_at</text>
<text x="265" y="686" font-size="8.5" fill="#9aa8b6" text-anchor="end">timestamptz ·</text>
<rect x="332" y="316" width="236" height="134" rx="7" fill="#ffffff" stroke="#2f6fd0" stroke-width="1.2"/>
<path d="M332,342 h236" stroke="#2f6fd0" stroke-width="1" opacity="0.45"/>
<rect x="332" y="316" width="236" height="26" rx="7" fill="#2f6fd0" opacity="0.10"/>
<text x="343" y="333" font-size="12.5" font-weight="600" fill="#2f6fd0">courses</text>
<text x="343" y="358" font-size="10" fill="#3c4c5c">id</text>
<text x="450" y="358" font-size="7.5" font-weight="600" fill="#2f6fd0">PK</text>
<text x="557" y="358" font-size="8.5" fill="#9aa8b6" text-anchor="end">int ·</text>
<text x="343" y="374" font-size="10" fill="#3c4c5c">doctor_id</text>
<text x="450" y="374" font-size="7.5" font-weight="600" fill="#2f6fd0">FK</text>
<text x="557" y="374" font-size="8.5" fill="#9aa8b6" text-anchor="end">int ·</text>
<text x="343" y="388" font-size="10" fill="#3c4c5c">title</text>
<text x="557" y="388" font-size="8.5" fill="#9aa8b6" text-anchor="end">varchar ·</text>
<text x="343" y="404" font-size="10" fill="#3c4c5c">created_at</text>
<text x="557" y="404" font-size="8.5" fill="#9aa8b6" text-anchor="end">timestamptz ·</text>
<text x="343" y="418" font-size="10" fill="#3c4c5c">subject_id</text>
<text x="450" y="418" font-size="7.5" font-weight="600" fill="#2f6fd0">FK</text>
<text x="557" y="418" font-size="8.5" fill="#9aa8b6" text-anchor="end">int</text>
<text x="343" y="434" font-size="10" fill="#3c4c5c">academic_year</text>
<text x="557" y="434" font-size="8.5" fill="#9aa8b6" text-anchor="end">int2</text>
<rect x="332" y="480" width="236" height="104" rx="7" fill="#ffffff" stroke="#a8681c" stroke-width="1.2"/>
<path d="M332,506 h236" stroke="#a8681c" stroke-width="1" opacity="0.45"/>
<rect x="332" y="480" width="236" height="26" rx="7" fill="#a8681c" opacity="0.10"/>
<text x="343" y="497" font-size="12.5" font-weight="600" fill="#a8681c">subscriptions</text>
<text x="343" y="522" font-size="10" fill="#3c4c5c">id</text>
<text x="450" y="522" font-size="7.5" font-weight="600" fill="#a8681c">PK</text>
<text x="557" y="522" font-size="8.5" fill="#9aa8b6" text-anchor="end">int ·</text>
<text x="343" y="538" font-size="10" fill="#3c4c5c">student_id</text>
<text x="450" y="538" font-size="7.5" font-weight="600" fill="#a8681c">FK UK</text>
<text x="557" y="538" font-size="8.5" fill="#9aa8b6" text-anchor="end">int ·</text>
<text x="343" y="552" font-size="10" fill="#3c4c5c">doctor_id</text>
<text x="450" y="552" font-size="7.5" font-weight="600" fill="#a8681c">FK UK</text>
<text x="557" y="552" font-size="8.5" fill="#9aa8b6" text-anchor="end">int ·</text>
<text x="343" y="568" font-size="10" fill="#3c4c5c">subscribed_at</text>
<text x="557" y="568" font-size="8.5" fill="#9aa8b6" text-anchor="end">timestamptz ·</text>
<rect x="624" y="234" width="236" height="119" rx="7" fill="#ffffff" stroke="#2f6fd0" stroke-width="2.2"/>
<path d="M624,260 h236" stroke="#2f6fd0" stroke-width="1" opacity="0.45"/>
<rect x="624" y="234" width="236" height="26" rx="7" fill="#2f6fd0" opacity="0.10"/>
<text x="635" y="251" font-size="12.5" font-weight="600" fill="#2f6fd0">modules</text>
<text x="849" y="251" font-size="8.5" font-weight="600" fill="#2f6fd0" text-anchor="end" opacity="0.75">NEW</text>
<text x="635" y="276" font-size="10" fill="#3c4c5c">id</text>
<text x="742" y="276" font-size="7.5" font-weight="600" fill="#2f6fd0">PK</text>
<text x="849" y="276" font-size="8.5" fill="#9aa8b6" text-anchor="end">int ·</text>
<text x="635" y="292" font-size="10" fill="#3c4c5c">course_id</text>
<text x="742" y="292" font-size="7.5" font-weight="600" fill="#2f6fd0">FK UK</text>
<text x="849" y="292" font-size="8.5" fill="#9aa8b6" text-anchor="end">int ·</text>
<text x="635" y="306" font-size="10" fill="#3c4c5c">title</text>
<text x="742" y="306" font-size="7.5" font-weight="600" fill="#2f6fd0">UK</text>
<text x="849" y="306" font-size="8.5" fill="#9aa8b6" text-anchor="end">varchar ·</text>
<text x="635" y="322" font-size="10" fill="#3c4c5c">position</text>
<text x="849" y="322" font-size="8.5" fill="#9aa8b6" text-anchor="end">int2 ·</text>
<text x="635" y="336" font-size="10" fill="#3c4c5c">created_at</text>
<text x="849" y="336" font-size="8.5" fill="#9aa8b6" text-anchor="end">timestamptz ·</text>
<rect x="624" y="382" width="236" height="104" rx="7" fill="#ffffff" stroke="#a8681c" stroke-width="1.2"/>
<path d="M624,408 h236" stroke="#a8681c" stroke-width="1" opacity="0.45"/>
<rect x="624" y="382" width="236" height="26" rx="7" fill="#a8681c" opacity="0.10"/>
<text x="635" y="400" font-size="12.5" font-weight="600" fill="#a8681c">enrollments</text>
<text x="635" y="426" font-size="10" fill="#3c4c5c">id</text>
<text x="742" y="426" font-size="7.5" font-weight="600" fill="#a8681c">PK</text>
<text x="849" y="426" font-size="8.5" fill="#9aa8b6" text-anchor="end">int ·</text>
<text x="635" y="440" font-size="10" fill="#3c4c5c">student_id</text>
<text x="742" y="440" font-size="7.5" font-weight="600" fill="#a8681c">FK UK</text>
<text x="849" y="440" font-size="8.5" fill="#9aa8b6" text-anchor="end">int ·</text>
<text x="635" y="456" font-size="10" fill="#3c4c5c">course_id</text>
<text x="742" y="456" font-size="7.5" font-weight="600" fill="#a8681c">FK UK</text>
<text x="849" y="456" font-size="8.5" fill="#9aa8b6" text-anchor="end">int ·</text>
<text x="635" y="470" font-size="10" fill="#3c4c5c">enrolled_at</text>
<text x="849" y="470" font-size="8.5" fill="#9aa8b6" text-anchor="end">timestamptz ·</text>
<rect x="624" y="516" width="236" height="149" rx="7" fill="#ffffff" stroke="#3d7a45" stroke-width="1.2"/>
<path d="M624,542 h236" stroke="#3d7a45" stroke-width="1" opacity="0.45"/>
<rect x="624" y="516" width="236" height="26" rx="7" fill="#3d7a45" opacity="0.10"/>
<text x="635" y="534" font-size="12.5" font-weight="600" fill="#3d7a45">report_narratives</text>
<text x="635" y="560" font-size="10" fill="#3c4c5c">id</text>
<text x="742" y="560" font-size="7.5" font-weight="600" fill="#3d7a45">PK</text>
<text x="849" y="560" font-size="8.5" fill="#9aa8b6" text-anchor="end">int ·</text>
<text x="635" y="574" font-size="10" fill="#3c4c5c">student_id</text>
<text x="742" y="574" font-size="7.5" font-weight="600" fill="#3d7a45">FK UK</text>
<text x="849" y="574" font-size="8.5" fill="#9aa8b6" text-anchor="end">int ·</text>
<text x="635" y="590" font-size="10" fill="#3c4c5c">course_id</text>
<text x="742" y="590" font-size="7.5" font-weight="600" fill="#3d7a45">FK UK</text>
<text x="849" y="590" font-size="8.5" fill="#9aa8b6" text-anchor="end">int ·</text>
<text x="635" y="604" font-size="10" fill="#3c4c5c">week_start</text>
<text x="742" y="604" font-size="7.5" font-weight="600" fill="#3d7a45">UK</text>
<text x="849" y="604" font-size="8.5" fill="#9aa8b6" text-anchor="end">date ·</text>
<text x="635" y="620" font-size="10" fill="#3c4c5c">fingerprint</text>
<text x="849" y="620" font-size="8.5" fill="#9aa8b6" text-anchor="end">char ·</text>
<text x="635" y="634" font-size="10" fill="#3c4c5c">narrative</text>
<text x="849" y="634" font-size="8.5" fill="#9aa8b6" text-anchor="end">jsonb ·</text>
<text x="635" y="650" font-size="10" fill="#3c4c5c">generated_at</text>
<text x="849" y="650" font-size="8.5" fill="#9aa8b6" text-anchor="end">timestamptz ·</text>
<rect x="916" y="375" width="236" height="149" rx="7" fill="#ffffff" stroke="#2f6fd0" stroke-width="1.2"/>
<path d="M916,401 h236" stroke="#2f6fd0" stroke-width="1" opacity="0.45"/>
<rect x="916" y="375" width="236" height="26" rx="7" fill="#2f6fd0" opacity="0.10"/>
<text x="927" y="392" font-size="12.5" font-weight="600" fill="#2f6fd0">lectures</text>
<text x="927" y="418" font-size="10" fill="#3c4c5c">id</text>
<text x="1034" y="418" font-size="7.5" font-weight="600" fill="#2f6fd0">PK</text>
<text x="1141" y="418" font-size="8.5" fill="#9aa8b6" text-anchor="end">int ·</text>
<text x="927" y="433" font-size="10" fill="#3c4c5c">doctor_id</text>
<text x="1034" y="433" font-size="7.5" font-weight="600" fill="#2f6fd0">FK</text>
<text x="1141" y="433" font-size="8.5" fill="#9aa8b6" text-anchor="end">int ·</text>
<text x="927" y="448" font-size="10" fill="#3c4c5c">title</text>
<text x="1141" y="448" font-size="8.5" fill="#9aa8b6" text-anchor="end">varchar ·</text>
<text x="927" y="463" font-size="10" fill="#3c4c5c">video_url</text>
<text x="1141" y="463" font-size="8.5" fill="#9aa8b6" text-anchor="end">text</text>
<text x="927" y="478" font-size="10" fill="#3c4c5c">created_at</text>
<text x="1141" y="478" font-size="8.5" fill="#9aa8b6" text-anchor="end">timestamptz ·</text>
<text x="927" y="493" font-size="10" fill="#3c4c5c">course_id</text>
<text x="1034" y="493" font-size="7.5" font-weight="600" fill="#2f6fd0">FK</text>
<text x="1141" y="493" font-size="8.5" fill="#9aa8b6" text-anchor="end">int</text>
<text x="927" y="508" font-size="10" fill="#3c4c5c">module_id</text>
<text x="1034" y="508" font-size="7.5" font-weight="600" fill="#2f6fd0">FK</text>
<text x="1141" y="508" font-size="8.5" fill="#9aa8b6" text-anchor="end">int</text>
<rect x="1208" y="114" width="236" height="134" rx="7" fill="#ffffff" stroke="#177a70" stroke-width="1.2"/>
<path d="M1208,140 h236" stroke="#177a70" stroke-width="1" opacity="0.45"/>
<rect x="1208" y="114" width="236" height="26" rx="7" fill="#177a70" opacity="0.10"/>
<text x="1219" y="132" font-size="12.5" font-weight="600" fill="#177a70">transcript_chunks</text>
<text x="1219" y="157" font-size="10" fill="#3c4c5c">id</text>
<text x="1326" y="157" font-size="7.5" font-weight="600" fill="#177a70">PK</text>
<text x="1433" y="157" font-size="8.5" fill="#9aa8b6" text-anchor="end">int ·</text>
<text x="1219" y="172" font-size="10" fill="#3c4c5c">lecture_id</text>
<text x="1326" y="172" font-size="7.5" font-weight="600" fill="#177a70">FK</text>
<text x="1433" y="172" font-size="8.5" fill="#9aa8b6" text-anchor="end">int ·</text>
<text x="1219" y="187" font-size="10" fill="#3c4c5c">text</text>
<text x="1433" y="187" font-size="8.5" fill="#9aa8b6" text-anchor="end">text ·</text>
<text x="1219" y="202" font-size="10" fill="#3c4c5c">start_ts</text>
<text x="1433" y="202" font-size="8.5" fill="#9aa8b6" text-anchor="end">int ·</text>
<text x="1219" y="217" font-size="10" fill="#3c4c5c">end_ts</text>
<text x="1433" y="217" font-size="8.5" fill="#9aa8b6" text-anchor="end">int ·</text>
<text x="1219" y="232" font-size="10" fill="#3c4c5c">embedding</text>
<text x="1433" y="232" font-size="8.5" fill="#9aa8b6" text-anchor="end">vector</text>
<rect x="1208" y="278" width="236" height="149" rx="7" fill="#ffffff" stroke="#a83d63" stroke-width="1.2"/>
<path d="M1208,304 h236" stroke="#a83d63" stroke-width="1" opacity="0.45"/>
<rect x="1208" y="278" width="236" height="26" rx="7" fill="#a83d63" opacity="0.10"/>
<text x="1219" y="296" font-size="12.5" font-weight="600" fill="#a83d63">video_events</text>
<text x="1219" y="321" font-size="10" fill="#3c4c5c">id</text>
<text x="1326" y="321" font-size="7.5" font-weight="600" fill="#a83d63">PK</text>
<text x="1433" y="321" font-size="8.5" fill="#9aa8b6" text-anchor="end">int ·</text>
<text x="1219" y="336" font-size="10" fill="#3c4c5c">student_id</text>
<text x="1326" y="336" font-size="7.5" font-weight="600" fill="#a83d63">FK</text>
<text x="1433" y="336" font-size="8.5" fill="#9aa8b6" text-anchor="end">int ·</text>
<text x="1219" y="351" font-size="10" fill="#3c4c5c">lecture_id</text>
<text x="1326" y="351" font-size="7.5" font-weight="600" fill="#a83d63">FK</text>
<text x="1433" y="351" font-size="8.5" fill="#9aa8b6" text-anchor="end">int ·</text>
<text x="1219" y="366" font-size="10" fill="#3c4c5c">event_type</text>
<text x="1433" y="366" font-size="8.5" fill="#9aa8b6" text-anchor="end">varchar ·</text>
<text x="1219" y="381" font-size="10" fill="#3c4c5c">video_ts</text>
<text x="1433" y="381" font-size="8.5" fill="#9aa8b6" text-anchor="end">float</text>
<text x="1219" y="396" font-size="10" fill="#3c4c5c">session_id</text>
<text x="1433" y="396" font-size="8.5" fill="#9aa8b6" text-anchor="end">varchar</text>
<text x="1219" y="411" font-size="10" fill="#3c4c5c">created_at</text>
<text x="1433" y="411" font-size="8.5" fill="#9aa8b6" text-anchor="end">timestamptz ·</text>
<rect x="1208" y="457" width="236" height="149" rx="7" fill="#ffffff" stroke="#a83d63" stroke-width="1.2"/>
<path d="M1208,483 h236" stroke="#a83d63" stroke-width="1" opacity="0.45"/>
<rect x="1208" y="457" width="236" height="26" rx="7" fill="#a83d63" opacity="0.10"/>
<text x="1219" y="474" font-size="12.5" font-weight="600" fill="#a83d63">questions</text>
<text x="1219" y="500" font-size="10" fill="#3c4c5c">id</text>
<text x="1326" y="500" font-size="7.5" font-weight="600" fill="#a83d63">PK</text>
<text x="1433" y="500" font-size="8.5" fill="#9aa8b6" text-anchor="end">int ·</text>
<text x="1219" y="515" font-size="10" fill="#3c4c5c">lecture_id</text>
<text x="1326" y="515" font-size="7.5" font-weight="600" fill="#a83d63">FK</text>
<text x="1433" y="515" font-size="8.5" fill="#9aa8b6" text-anchor="end">int ·</text>
<text x="1219" y="530" font-size="10" fill="#3c4c5c">topic_id</text>
<text x="1326" y="530" font-size="7.5" font-weight="600" fill="#a83d63">FK</text>
<text x="1433" y="530" font-size="8.5" fill="#9aa8b6" text-anchor="end">int</text>
<text x="1219" y="545" font-size="10" fill="#3c4c5c">stem</text>
<text x="1433" y="545" font-size="8.5" fill="#9aa8b6" text-anchor="end">text ·</text>
<text x="1219" y="560" font-size="10" fill="#3c4c5c">options</text>
<text x="1433" y="560" font-size="8.5" fill="#9aa8b6" text-anchor="end">jsonb ·</text>
<text x="1219" y="575" font-size="10" fill="#3c4c5c">correct_option</text>
<text x="1433" y="575" font-size="8.5" fill="#9aa8b6" text-anchor="end">varchar ·</text>
<text x="1219" y="590" font-size="10" fill="#3c4c5c">difficulty</text>
<text x="1433" y="590" font-size="8.5" fill="#9aa8b6" text-anchor="end">varchar</text>
<rect x="1208" y="636" width="236" height="149" rx="7" fill="#ffffff" stroke="#3d7a45" stroke-width="1.2"/>
<path d="M1208,662 h236" stroke="#3d7a45" stroke-width="1" opacity="0.45"/>
<rect x="1208" y="636" width="236" height="26" rx="7" fill="#3d7a45" opacity="0.10"/>
<text x="1219" y="654" font-size="12.5" font-weight="600" fill="#3d7a45">reports</text>
<text x="1219" y="679" font-size="10" fill="#3c4c5c">id</text>
<text x="1326" y="679" font-size="7.5" font-weight="600" fill="#3d7a45">PK</text>
<text x="1433" y="679" font-size="8.5" fill="#9aa8b6" text-anchor="end">int ·</text>
<text x="1219" y="694" font-size="10" fill="#3c4c5c">student_id</text>
<text x="1326" y="694" font-size="7.5" font-weight="600" fill="#3d7a45">FK</text>
<text x="1433" y="694" font-size="8.5" fill="#9aa8b6" text-anchor="end">int ·</text>
<text x="1219" y="709" font-size="10" fill="#3c4c5c">course_id</text>
<text x="1326" y="709" font-size="7.5" font-weight="600" fill="#3d7a45">FK</text>
<text x="1433" y="709" font-size="8.5" fill="#9aa8b6" text-anchor="end">int ·</text>
<text x="1219" y="724" font-size="10" fill="#3c4c5c">kind</text>
<text x="1433" y="724" font-size="8.5" fill="#9aa8b6" text-anchor="end">varchar ·</text>
<text x="1219" y="739" font-size="10" fill="#3c4c5c">lecture_id</text>
<text x="1326" y="739" font-size="7.5" font-weight="600" fill="#3d7a45">FK</text>
<text x="1433" y="739" font-size="8.5" fill="#9aa8b6" text-anchor="end">int</text>
<text x="1219" y="754" font-size="10" fill="#3c4c5c">payload</text>
<text x="1433" y="754" font-size="8.5" fill="#9aa8b6" text-anchor="end">jsonb ·</text>
<text x="1219" y="769" font-size="10" fill="#3c4c5c">generated_at</text>
<text x="1433" y="769" font-size="8.5" fill="#9aa8b6" text-anchor="end">timestamptz ·</text>
<rect x="1500" y="278" width="236" height="134" rx="7" fill="#ffffff" stroke="#a83d63" stroke-width="1.2"/>
<path d="M1500,304 h236" stroke="#a83d63" stroke-width="1" opacity="0.45"/>
<rect x="1500" y="278" width="236" height="26" rx="7" fill="#a83d63" opacity="0.10"/>
<text x="1511" y="296" font-size="12.5" font-weight="600" fill="#a83d63">question_attempts</text>
<text x="1511" y="321" font-size="10" fill="#3c4c5c">id</text>
<text x="1618" y="321" font-size="7.5" font-weight="600" fill="#a83d63">PK</text>
<text x="1725" y="321" font-size="8.5" fill="#9aa8b6" text-anchor="end">int ·</text>
<text x="1511" y="336" font-size="10" fill="#3c4c5c">student_id</text>
<text x="1618" y="336" font-size="7.5" font-weight="600" fill="#a83d63">FK</text>
<text x="1725" y="336" font-size="8.5" fill="#9aa8b6" text-anchor="end">int ·</text>
<text x="1511" y="351" font-size="10" fill="#3c4c5c">question_id</text>
<text x="1618" y="351" font-size="7.5" font-weight="600" fill="#a83d63">FK</text>
<text x="1725" y="351" font-size="8.5" fill="#9aa8b6" text-anchor="end">int ·</text>
<text x="1511" y="366" font-size="10" fill="#3c4c5c">is_correct</text>
<text x="1725" y="366" font-size="8.5" fill="#9aa8b6" text-anchor="end">bool ·</text>
<text x="1511" y="381" font-size="10" fill="#3c4c5c">answered_at</text>
<text x="1725" y="381" font-size="8.5" fill="#9aa8b6" text-anchor="end">timestamptz ·</text>
<text x="1511" y="396" font-size="10" fill="#3c4c5c">selected_option</text>
<text x="1725" y="396" font-size="8.5" fill="#9aa8b6" text-anchor="end">varchar</text>
<rect x="1500" y="442" width="236" height="179" rx="7" fill="#ffffff" stroke="#3d7a45" stroke-width="1.2"/>
<path d="M1500,468 h236" stroke="#3d7a45" stroke-width="1" opacity="0.45"/>
<rect x="1500" y="442" width="236" height="26" rx="7" fill="#3d7a45" opacity="0.10"/>
<text x="1511" y="460" font-size="12.5" font-weight="600" fill="#3d7a45">notifications</text>
<text x="1511" y="485" font-size="10" fill="#3c4c5c">id</text>
<text x="1618" y="485" font-size="7.5" font-weight="600" fill="#3d7a45">PK</text>
<text x="1725" y="485" font-size="8.5" fill="#9aa8b6" text-anchor="end">int ·</text>
<text x="1511" y="500" font-size="10" fill="#3c4c5c">user_id</text>
<text x="1618" y="500" font-size="7.5" font-weight="600" fill="#3d7a45">FK</text>
<text x="1725" y="500" font-size="8.5" fill="#9aa8b6" text-anchor="end">int ·</text>
<text x="1511" y="515" font-size="10" fill="#3c4c5c">kind</text>
<text x="1725" y="515" font-size="8.5" fill="#9aa8b6" text-anchor="end">varchar ·</text>
<text x="1511" y="530" font-size="10" fill="#3c4c5c">title</text>
<text x="1725" y="530" font-size="8.5" fill="#9aa8b6" text-anchor="end">text ·</text>
<text x="1511" y="545" font-size="10" fill="#3c4c5c">body</text>
<text x="1725" y="545" font-size="8.5" fill="#9aa8b6" text-anchor="end">text</text>
<text x="1511" y="560" font-size="10" fill="#3c4c5c">report_id</text>
<text x="1618" y="560" font-size="7.5" font-weight="600" fill="#3d7a45">FK</text>
<text x="1725" y="560" font-size="8.5" fill="#9aa8b6" text-anchor="end">int</text>
<text x="1511" y="575" font-size="10" fill="#3c4c5c">student_id</text>
<text x="1618" y="575" font-size="7.5" font-weight="600" fill="#3d7a45">FK</text>
<text x="1725" y="575" font-size="8.5" fill="#9aa8b6" text-anchor="end">int</text>
<text x="1511" y="590" font-size="10" fill="#3c4c5c">read_at</text>
<text x="1725" y="590" font-size="8.5" fill="#9aa8b6" text-anchor="end">timestamptz</text>
<text x="1511" y="605" font-size="10" fill="#3c4c5c">created_at</text>
<text x="1725" y="605" font-size="8.5" fill="#9aa8b6" text-anchor="end">timestamptz ·</text>
</svg>